<?xml version="1.0" standalone="yes"?>
<svg xmlns="http://www.w3.org/2000/svg" width="241" height="70">
<path style="fill:#f9f9e8; stroke:none;" d="M0 0L0 69C5.32144 69 18.1166 71.3621 22.3966 67.9722C27.0497 64.2869 24 44.7027 24 39L35 39C35 45.4492 31.9713 62.2749 36.0278 67.3966C38.0248 69.918 43.197 68.9998 46 69L73 69C75.803 68.9998 80.9752 69.918 82.9722 67.3966C84.9117 64.9478 84 59.9104 84 57L84 29L93.3966 30.6034L95 41L95 69L118 69C118 64.0908 116.616 56.7005 118.603 52.1481C120.235 48.4113 126.701 47.9146 128.972 51.3179C131.698 55.4027 130 64.2457 130 69L175 69L175 29L186 29C186 38.834 182.272 57.8803 186.603 66.6821C189.33 72.2237 205.975 70.1405 207 64L218 64C219.389 72.3236 234.424 68.4344 241 70L241 0L222 0L222 1C237.033 5.46546 235.749 19.0911 226 28C237.489 35.3675 240.121 51.3852 226 58.0802C217.245 62.2309 204.478 60 195 60L195 0L148 0L147 26L163 26L163 30C158.246 30 149.403 31.6982 145.318 28.9722C139.906 25.3609 143 5.97947 143 0L91 0L101 29C96.5104 28.7982 95.2135 26.0686 94 22L83 22C82.0332 26.0076 81.0971 28.7099 77 30L86 0L70 0L70 3L55 3L55 12L69 12L69 15L55 15L55 26C60.4707 26 67.009 24.5759 70 30L51 30L51 0L31 0L31 1C44.4364 3.09702 51.2246 19.7878 40.892 29.8117C33.7137 36.7755 23.2365 36 14 36L14 59L5 59L5 0L0 0z"/>
<path style="fill:#121111; stroke:none;" d="M5 0L5 59L14 59L14 35C22.0966 35 31.7445 36.4095 38.9066 31.7755C48.0284 25.8735 47.6345 9.81242 38.9568 3.70293C30.0424 -2.57314 15.2729 0 5 0z"/>
<path style="fill:#0b88ff; stroke:none;" d="M30 0L31 1L30 0z"/>
<path style="fill:#121111; stroke:none;" d="M51 0L51 29L70 29L70 27L55 27L55 15C59.7447 15 66.1472 16.4004 69 12L55 12L55 3C59.9125 3 67.0412 4.56397 70 0L51 0z"/>
<path style="fill:#0b88ff; stroke:none;" d="M86 0L87 1L86 0z"/>
<path style="fill:#121111; stroke:none;" d="M77 29C83.6237 27.8535 92.0931 14.2101 96 29L100 29L91 0C82.3292 1.43401 79.438 21.5073 77 29z"/>
<path style="fill:#0278f4; stroke:none;" d="M143 0C143 5.70268 139.95 25.2869 144.603 28.9722C148.308 31.9066 158.443 30 163 30L163 29L144 29L143 0z"/>
<path style="fill:#121111; stroke:none;" d="M144 0L144 29L163 29L163 27L147 27L147 0L144 0z"/>
<path style="fill:#0b88ff; stroke:none;" d="M147 0L147 25L148 25L147 0z"/>
<path style="fill:#121111; stroke:none;" d="M195 0L195 60C205.361 60 219.74 62.5101 228.957 56.7724C240.928 49.3199 236.101 32.8861 225 28C234.143 22.1363 238.272 7.80167 225.985 2.21374C216.885 -1.92516 204.743 0 195 0z"/>
<path style="fill:#0278f4; stroke:none;" d="M220 0L221 1L220 0z"/>
<path style="fill:#0b88ff; stroke:none;" d="M221 0L222 1L221 0z"/>
<path style="fill:#0278f4; stroke:none;" d="M34 1L35 2L34 1z"/>
<path style="fill:#0b88ff; stroke:none;" d="M120 1L121 2L120 1z"/>
<path style="fill:#0278f4; stroke:none;" d="M121 1L122 2L121 1z"/>
<path style="fill:#121111; stroke:none;" d="M138 35C134.475 37.2903 131.311 39.7726 127 40.2901C104.697 42.9675 104.934 1.29558 128 5.33025C131.741 5.98457 134.802 8.09488 138 10C137.241 0.0401306 124.422 -0.365425 117 2.96991C108.558 6.76363 105.832 15.389 106.015 24C106.19 32.1856 109.867 40.0586 118 42.8912C125.583 45.5324 137.678 44.6845 138 35z"/>
<path style="fill:#0278f4; stroke:none;" d="M129 1L130 2L129 1z"/>
<path style="fill:#0b88ff; stroke:none;" d="M130 1L131 2L130 1z"/>
<path style="fill:#121111; stroke:none;" d="M178 1L169 29L173 29C174.898 21.8146 179.431 22.0007 186 22C186.669 26.1649 187.683 28.2859 192 29C189.538 21.7223 186.341 2.37942 178 1z"/>
<path style="fill:#0b88ff; stroke:none;" d="M182 1L183 2L182 1M224 1L225 2L224 1M37 2L38 3L37 2z"/>
<path style="fill:#0278f4; stroke:none;" d="M69 2L70 3L69 2z"/>
<path style="fill:#0b88ff; stroke:none;" d="M91 2L92 3L91 2z"/>
<path style="fill:#0278f4; stroke:none;" d="M117 2L118 3L117 2M133 2L134 3L133 2z"/>
<path style="fill:#0b88ff; stroke:none;" d="M85 3L86 4L85 3z"/>
<path style="fill:#0278f4; stroke:none;" d="M115 3L116 4L115 3M177 3L178 4L177 3z"/>
<path style="fill:#0b88ff; stroke:none;" d="M228 3L229 4L228 3M40 4L41 5L40 4M113 4L114 5L113 4z"/>
<path style="fill:#0278f4; stroke:none;" d="M137 4L138 5L137 4z"/>
<path style="fill:#0b88ff; stroke:none;" d="M183 4L184 5L183 4M41 5L42 6L41 5M92 5L93 6L92 5z"/>
<path style="fill:#0278f4; stroke:none;" d="M112 5L113 6L112 5M120 5L121 6L120 5z"/>
<path style="fill:#0b88ff; stroke:none;" d="M121 5L122 6L121 5M129 5L130 6L129 5M138 5L138 10L139 10L138 5M176 5L177 6L176 5M84 6L85 7L84 6z"/>
<path style="fill:#0278f4; stroke:none;" d="M111 6L112 7L111 6z"/>
<path style="fill:#0b88ff; stroke:none;" d="M118 6L119 7L118 6z"/>
<path style="fill:#0278f4; stroke:none;" d="M132 6L133 7L132 6M176 6L177 7L176 6z"/>
<path style="fill:#0b88ff; stroke:none;" d="M231 6L232 7L231 6z"/>
<path style="fill:#f9f9e8; stroke:none;" d="M14 7L14 28C19.4578 28 26.9598 29.3046 31.892 26.5432C38.4415 22.8763 38.1069 12.877 31.9452 9.0895C26.83 5.94524 19.7309 7 14 7z"/>
<path style="fill:#0b88ff; stroke:none;" d="M28 7L29 8L28 7z"/>
<path style="fill:#0278f4; stroke:none;" d="M29 7L30 8L29 7M88 7L90 9L88 7M110 7L111 8L110 7z"/>
<path style="fill:#0b88ff; stroke:none;" d="M116 7L117 8L116 7z"/>
<path style="fill:#0278f4; stroke:none;" d="M134 7L135 8L134 7z"/>
<path style="fill:#0b88ff; stroke:none;" d="M184 7L185 8L184 7z"/>
<path style="fill:#f9f9e8; stroke:none;" d="M203 7C203 11.1671 201.328 19.9875 204.028 23.3966C211.129 32.3624 237.303 16.8046 220.956 8.3179C219.115 7.36229 217.037 7.14332 215 7.04012C211.016 6.83825 206.989 7 203 7z"/>
<path style="fill:#0b88ff; stroke:none;" d="M219 7L220 8L219 7M31 8L32 9L31 8z"/>
<path style="fill:#0278f4; stroke:none;" d="M43 8L44 9L43 8z"/>
<path style="fill:#f9f9e8; stroke:none;" d="M88 8L85 19L92 19L88 8z"/>
<path style="fill:#0b88ff; stroke:none;" d="M93 8L94 9L93 8M109 8L110 9L109 8M115 8L116 9L115 8M135 8L136 9L135 8M175 8L176 9L175 8M180 8L179 10L180 8z"/>
<path style="fill:#0278f4; stroke:none;" d="M222 8L223 9L222 8M33 9L34 10L33 9z"/>
<path style="fill:#0b88ff; stroke:none;" d="M83 9L84 10L83 9z"/>
<path style="fill:#0278f4; stroke:none;" d="M87 9L88 10L87 9z"/>
<path style="fill:#0b88ff; stroke:none;" d="M89 9L90 10L89 9M114 9L115 10L114 9z"/>
<path style="fill:#f9f9e8; stroke:none;" d="M180 9L177 19L184 19L180 9z"/>
<path style="fill:#0b88ff; stroke:none;" d="M223 9L224 10L223 9z"/>
<path style="fill:#0278f4; stroke:none;" d="M34 10L35 11L34 10M44 10L45 11L44 10z"/>
<path style="fill:#0b88ff; stroke:none;" d="M87 10L88 11L87 10z"/>
<path style="fill:#0278f4; stroke:none;" d="M108 10L109 11L108 10M113 10L114 11L113 10M181 10L182 11L181 10z"/>
<path style="fill:#0b88ff; stroke:none;" d="M185 10L186 11L185 10M224 10L225 11L224 10M233 10L234 11L233 10z"/>
<path style="fill:#0278f4; stroke:none;" d="M90 11L91 12L90 11z"/>
<path style="fill:#0b88ff; stroke:none;" d="M94 11L95 12L94 11M174 11L175 12L174 11M181 11L182 12L181 11z"/>
<path style="fill:#0278f4; stroke:none;" d="M233 11L234 12L233 11z"/>
<path style="fill:#0b88ff; stroke:none;" d="M82 12L83 13L82 12z"/>
<path style="fill:#0278f4; stroke:none;" d="M86 12L87 13L86 12z"/>
<path style="fill:#0b88ff; stroke:none;" d="M90 12L91 13L90 12M107 12L108 13L107 12M112 12L113 13L112 12M178 12L179 13L178 12M225 12L226 13L225 12M45 13L46 14L45 13M86 13L87 14L86 13z"/>
<path style="fill:#0278f4; stroke:none;" d="M182 13L183 14L182 13z"/>
<path style="fill:#0b88ff; stroke:none;" d="M186 13L187 14L186 13M36 14L37 15L36 14z"/>
<path style="fill:#0278f4; stroke:none;" d="M45.3333 14.6667L45.6667 15.3333L45.3333 14.6667z"/>
<path style="fill:#0b88ff; stroke:none;" d="M68 14L69 15L68 14z"/>
<path style="fill:#0278f4; stroke:none;" d="M91 14L92 15L91 14z"/>
<path style="fill:#0b88ff; stroke:none;" d="M95 14L96 15L95 14M106.333 14.6667L106.667 15.3333L106.333 14.6667z"/>
<path style="fill:#0278f4; stroke:none;" d="M111 14L112 15L111 14z"/>
<path style="fill:#0b88ff; stroke:none;" d="M173 14L174 15L173 14z"/>
<path style="fill:#0278f4; stroke:none;" d="M177 14L178 15L177 14z"/>
<path style="fill:#0b88ff; stroke:none;" d="M81 15L82 16L81 15z"/>
<path style="fill:#0278f4; stroke:none;" d="M85 15L86 16L85 15z"/>
<path style="fill:#0b88ff; stroke:none;" d="M91 15L92 16L91 15M111 15L112 16L111 15M177 15L178 16L177 15M85 16L86 17L85 16z"/>
<path style="fill:#0278f4; stroke:none;" d="M106 16L107 17L106 16M183 16L184 17L183 16M187 16L188 17L187 16z"/>
<path style="fill:#0b88ff; stroke:none;" d="M92 17L93 18L92 17M96 17L97 18L96 17M172 17L173 18L172 17z"/>
<path style="fill:#0278f4; stroke:none;" d="M176.333 17.6667L176.667 18.3333L176.333 17.6667M233 17L234 18L233 17z"/>
<path style="fill:#0b88ff; stroke:none;" d="M80 18L81 19L80 18z"/>
<path style="fill:#0278f4; stroke:none;" d="M92 18L93 19L92 18z"/>
<path style="fill:#0b88ff; stroke:none;" d="M233.333 18.6667L233.667 19.3333L233.333 18.6667z"/>
<path style="fill:#0278f4; stroke:none;" d="M45.3333 19.6667L45.6667 20.3333L45.3333 19.6667M110 19L110 22L111 22L110 19M188 19L189 20L188 19M225 19L226 20L225 19z"/>
<path style="fill:#0b88ff; stroke:none;" d="M36 20L37 21L36 20M97 20L98 21L97 20z"/>
<path style="fill:#0278f4; stroke:none;" d="M171 20L172 21L171 20M36 21L37 22L36 21z"/>
<path style="fill:#0b88ff; stroke:none;" d="M45.3333 21.6667L45.6667 22.3333L45.3333 21.6667M79 21L80 22L79 21M105 21L105 25L106 25L105 21M232 21L233 22L232 21M110 22L111 23L110 22M185 22L186 23L185 22z"/>
<path style="fill:#0278f4; stroke:none;" d="M189 22L190 23L189 22z"/>
<path style="fill:#0b88ff; stroke:none;" d="M35 23L36 24L35 23z"/>
<path style="fill:#0278f4; stroke:none;" d="M94 23L95 24L94 23z"/>
<path style="fill:#0b88ff; stroke:none;" d="M98 23L99 24L98 23z"/>
<path style="fill:#0278f4; stroke:none;" d="M110 23L110 27L111 27L110 23M170 23L171 24L170 23z"/>
<path style="fill:#0b88ff; stroke:none;" d="M174 23L175 24L174 23M221 23L222 24L221 23M231 23L232 24L231 23M78 24L79 25L78 24z"/>
<path style="fill:#0278f4; stroke:none;" d="M82 24L83 25L82 24z"/>
<path style="fill:#0b88ff; stroke:none;" d="M94 24L95 25L94 24M190 24L191 25L190 24M203 24L204 25L203 24M215 24L215 25L218 25L215 24z"/>
<path style="fill:#0278f4; stroke:none;" d="M218 24L219 25L218 24z"/>
<path style="fill:#0b88ff; stroke:none;" d="M230 24L231 25L230 24M44 25L45 26L44 25M169 25L170 26L169 25M186 25L187 26L186 25M229 25L230 26L229 25M32 26L33 27L32 26M55 26L55 27L69 27L55 26z"/>
<path style="fill:#0278f4; stroke:none;" d="M95 26L96 27L95 26z"/>
<path style="fill:#0b88ff; stroke:none;" d="M99 26L100 27L99 26z"/>
<path style="fill:#0278f4; stroke:none;" d="M147 26L148 27L147 26z"/>
<path style="fill:#0b88ff; stroke:none;" d="M148 26L148 27L163 27L148 26z"/>
<path style="fill:#0278f4; stroke:none;" d="M169 26L170 27L169 26z"/>
<path style="fill:#0b88ff; stroke:none;" d="M173 26L174 27L173 26z"/>
<path style="fill:#0278f4; stroke:none;" d="M227 26L228 27L227 26z"/>
<path style="fill:#0b88ff; stroke:none;" d="M30 27L31 28L30 27M43 27L44 28L43 27M77 27L78 28L77 27z"/>
<path style="fill:#0278f4; stroke:none;" d="M81 27L82 28L81 27z"/>
<path style="fill:#0b88ff; stroke:none;" d="M191 27L192 28L191 27M225 27L226 28L225 27M14 28L14 29L28 29L14 28z"/>
<path style="fill:#0278f4; stroke:none;" d="M42 28L43 29L42 28z"/>
<path style="fill:#0b88ff; stroke:none;" d="M100 28L101 29L100 28M168 28L169 29L168 28M187 28L188 29L187 28M226 28L227 29L226 28z"/>
<path style="fill:#0278f4; stroke:none;" d="M51 29L51 30L69 30L51 29z"/>
<path style="fill:#0b88ff; stroke:none;" d="M69 29L70 30L69 29M77 29L78 30L77 29z"/>
<path style="fill:#0278f4; stroke:none;" d="M78.6667 29.3333L79.3333 29.6667L78.6667 29.3333z"/>
<path style="fill:#0b88ff; stroke:none;" d="M80 29L81 30L80 29M84 29L85 67L93 67L93 30L94 30L94 68L95 40L93.9722 30.6034L84 29z"/>
<path style="fill:#0278f4; stroke:none;" d="M97 29L97 30L100 30L97 29z"/>
<path style="fill:#0b88ff; stroke:none;" d="M106.333 29.6667L106.667 30.3333L106.333 29.6667M111 29L112 30L111 29z"/>
<path style="fill:#0278f4; stroke:none;" d="M169 29L169 30L172 30L169 29z"/>
<path style="fill:#0b88ff; stroke:none;" d="M175 29L175 68L176 68L176 30L177 30L177 67L185 67L186 29L175 29M188 29L189 30L188 29z"/>
<path style="fill:#0278f4; stroke:none;" d="M189.667 29.3333L190.333 29.6667L189.667 29.3333z"/>
<path style="fill:#0b88ff; stroke:none;" d="M191 29L192 30L191 29z"/>
<path style="fill:#0278f4; stroke:none;" d="M228 29L229 30L228 29M84 30L84 69L95 69L94 30L93 30L93 67L85 67C85 56.3512 88.1113 39.7978 84 30M111 30L112 31L111 30M176 30L175 69L186 69L186 30L185 30L185 67L177 67C177 56.3512 180.111 39.7978 176 30z"/>
<path style="fill:#0b88ff; stroke:none;" d="M230 30L231 31L230 30z"/>
<path style="fill:#0278f4; stroke:none;" d="M39 31L40 32L39 31M203 31L204 32L203 31z"/>
<path style="fill:#0b88ff; stroke:none;" d="M204 31L204 32L216 32L204 31z"/>
<path style="fill:#0278f4; stroke:none;" d="M216 31L216 32L219 32L216 31z"/>
<path style="fill:#0b88ff; stroke:none;" d="M231 31L232 32L231 31z"/>
<path style="fill:#0278f4; stroke:none;" d="M107 32L108 33L107 32z"/>
<path style="fill:#0b88ff; stroke:none;" d="M112 32L113 33L112 32z"/>
<path style="fill:#f9f9e8; stroke:none;" d="M203 32L203 53C209.261 53 218.318 54.6009 223.786 50.9105C229.621 46.9726 229.2 36.6097 222.945 33.3179C217.522 30.4639 208.956 32 203 32z"/>
<path style="fill:#0b88ff; stroke:none;" d="M221 32L222 33L221 32z"/>
<path style="fill:#0278f4; stroke:none;" d="M222 32L223 33L222 32z"/>
<path style="fill:#0b88ff; stroke:none;" d="M232 32L233 33L232 32z"/>
<path style="fill:#0278f4; stroke:none;" d="M35 33L36 34L35 33z"/>
<path style="fill:#0b88ff; stroke:none;" d="M36 33L37 34L36 33M107 33L108 34L107 33z"/>
<path style="fill:#0278f4; stroke:none;" d="M32 34L33 35L32 34z"/>
<path style="fill:#0b88ff; stroke:none;" d="M33 34L34 35L33 34M113 34L114 35L113 34z"/>
<path style="fill:#0278f4; stroke:none;" d="M225 34L226 35L225 34z"/>
<path style="fill:#0b88ff; stroke:none;" d="M14 35L14 36L29 36L14 35M108 35L109 36L108 35M138 35L138 40L139 40L138 35z"/>
<path style="fill:#0278f4; stroke:none;" d="M109 36L110 37L109 36z"/>
<path style="fill:#0b88ff; stroke:none;" d="M134 37L135 38L134 37M117 38L118 39L117 38z"/>
<path style="fill:#0278f4; stroke:none;" d="M133 38L134 39L133 38z"/>
<path style="fill:#0b88ff; stroke:none;" d="M227 38L228 39L227 38M235 38L236 39L235 38z"/>
<path style="fill:#fa0d0d; stroke:none;" d="M24 39L24 69L35 69L35 39L24 39z"/>
<path style="fill:#0278f4; stroke:none;" d="M119 39L120 40L119 39z"/>
<path style="fill:#0b88ff; stroke:none;" d="M120 39L121 40L120 39M130 39L131 40L130 39z"/>
<path style="fill:#0278f4; stroke:none;" d="M131 39L132 40L131 39M235 39L236 40L235 39M123 40L123 41L127 41L123 40z"/>
<path style="fill:#0b88ff; stroke:none;" d="M114 41L115 42L114 41M136 41L137 42L136 41M116 42L117 43L116 42M134 42L135 43L134 42M119 43L120 44L119 43z"/>
<path style="fill:#0278f4; stroke:none;" d="M130 43L131 44L130 43z"/>
<path style="fill:#0b88ff; stroke:none;" d="M131 43L132 44L131 43M227 46L228 47L227 46M235 47L236 48L235 47M226 48L227 49L226 48z"/>
<path style="fill:#fa0d0d; stroke:none;" d="M118 69L130 69C130 64.0663 131.601 55.798 129.397 51.3179C127.901 48.2782 121.067 48.0293 119.028 50.6034C116.093 54.3083 118 64.443 118 69z"/>
<path style="fill:#0278f4; stroke:none;" d="M234 50L235 51L234 50z"/>
<path style="fill:#0b88ff; stroke:none;" d="M223 51L224 52L223 51M220 52L221 53L220 52z"/>
<path style="fill:#0278f4; stroke:none;" d="M221 52L222 53L221 52z"/>
<path style="fill:#0b88ff; stroke:none;" d="M233 52L234 53L233 52z"/>
<path style="fill:#0278f4; stroke:none;" d="M229 56L230 57L229 56M225 58L226 59L225 58M221 59L222 60L221 59z"/>
<path style="fill:#0b88ff; stroke:none;" d="M222 59L223 60L222 59z"/>
<path style="fill:#fa0d0d; stroke:none;" d="M207 64L207 69L218 69L218 64L207 64z"/>
<path style="fill:#0b88ff; stroke:none;" d="M23 68L24 69L23 68M35 68L36 69L35 68M83 68L84 69L83 68M186 68L187 69L186 68M206 68L207 69L206 68M218 68L219 69L218 68M0 69L1 70L0 69z"/>
<path style="fill:#121111; stroke:none;" d="M1 69L1 70L239 70L217 69L169 69L1 69z"/>
<path style="fill:#0b88ff; stroke:none;" d="M239 69L240 70L239 69z"/>
</svg>
