<?xml version="1.0" standalone="yes"?>
<svg xmlns="http://www.w3.org/2000/svg" width="100" height="99">
<path style="fill:#010101; stroke:none;" d="M0 0L0 31L1 31C4.83143 17.7255 17.7375 4.82066 31 1L0 0z"/>
<path style="fill:#f7d8d9; stroke:none;" d="M0 39L1 39C3.67595 21.1472 21.1376 3.67738 39 1C20.2425 -6.85333 0.0423648 23.647 0 39z"/>
<path style="fill:#e89186; stroke:none;" d="M39.6667 0.333336L40.3333 0.666664L39.6667 0.333336z"/>
<path style="fill:#d53438; stroke:none;" d="M41 0.464508C-10.4174 9.71842 -13.5804 84.5844 37 97.8441C43.9735 99.6722 52.8973 99.8161 60 98.5355C66.4189 97.3782 72.6292 94.6157 78 90.9707C121.644 61.3505 93.0329 -8.90017 41 0.464508z"/>
<path style="fill:#e89186; stroke:none;" d="M59.6667 0.333336L60.3333 0.666664L59.6667 0.333336z"/>
<path style="fill:#f7d8d9; stroke:none;" d="M61 0L61 1C79.4532 3.76594 96.3084 21.7743 99 40C107.257 20.3227 77.4719 0.01091 61 0z"/>
<path style="fill:#010101; stroke:none;" d="M70 0L70 1C82.457 5.90993 95.1088 16.7764 99 30L100 30L100 0L70 0z"/>
<path style="fill:#e89186; stroke:none;" d="M35.6667 1.33334L36.3333 1.66666L35.6667 1.33334M63.6667 1.33334L64.3333 1.66666L63.6667 1.33334M32.6667 2.33334L33.3333 2.66666L32.6667 2.33334M66.6667 2.33334L67.3333 2.66666L66.6667 2.33334M30 3L31 4L30 3M43 3L41 5L40 10L41 10L41 7L44 9L43 3M48 3L48 9C51.9108 8.34827 52.6998 6.86437 53 3L52 3L49 8L48 3M54 3L54 9L55 9L55 6L56 6L57 10L60 10L61 5L60 5L60 8L59 8L59 4L58 4L58 7L57 7L56 3L54 3M69 3L70 4L69 3M28 4L29 5L28 4z"/>
<path style="fill:#f7d8d9; stroke:none;" d="M40.3333 4.66666L40.6667 5.33334L40.3333 4.66666M55 4L56 5L55 4z"/>
<path style="fill:#e89186; stroke:none;" d="M71 4L72 5L71 4M26 5L27 6L26 5M39 11C38.2128 0.88282 29.2979 10.2257 39 11M62 5L62 11L68 9C66.3699 11.4922 66.5845 12.2754 69 14L67 12L67 11C69.5947 10.6855 69.523 10.5401 69 8L71 9L67 6L64 8L62 5M73 5L74 6L73 5M24 6L25 7L24 6z"/>
<path style="fill:#d53438; stroke:none;" d="M35 6L38 10L37 6L35 6z"/>
<path style="fill:#e89186; stroke:none;" d="M75 6L76 7L75 6M22 7L23 8L22 7M28 8L32 13L33 13L32 7L28 8z"/>
<path style="fill:#f7d8d9; stroke:none;" d="M30 7L31 8L30 7z"/>
<path style="fill:#e89186; stroke:none;" d="M21 8L22 9L21 8z"/>
<path style="fill:#f7d8d9; stroke:none;" d="M44 8L45 9L44 8M57 8L58 9L57 8z"/>
<path style="fill:#e89186; stroke:none;" d="M78 8L79 9L78 8M26 9L25 12L29 13L29 14L27 14L27 15C31.8373 13.9581 28.0323 11.1775 26 9z"/>
<path style="fill:#f7d8d9; stroke:none;" d="M67 9L68 10L67 9z"/>
<path style="fill:#e89186; stroke:none;" d="M72 9L70 14L73 13L72 16L73 16L75 12L76 12L74 16L78 20L81 15L78 17L77 13L79 14L72 9M18 10L19 11L18 10z"/>
<path style="fill:#f7d8d9; stroke:none;" d="M63 10L64 11L63 10z"/>
<path style="fill:#d53438; stroke:none;" d="M73.3333 10.6667L73.6667 11.3333L73.3333 10.6667z"/>
<path style="fill:#e89186; stroke:none;" d="M81 10L82 11L81 10M17 11L18 12L17 11M82 11L83 12L82 11M16 12L17 13L16 12M21 18L19 16L15 18L15 19L21 22L21 18C30.3135 16.4678 18.837 8.53184 21 18M45 12L45 13L55 13L45 12M83 12L84 13L83 12z"/>
<path style="fill:#d53438; stroke:none;" d="M22 13L21 16L25 17L22 13z"/>
<path style="fill:#f7d8d9; stroke:none;" d="M24 13L25 14L24 13z"/>
<path style="fill:#e89186; stroke:none;" d="M40 13L43 15L40 13z"/>
<path style="fill:#f7d8d9; stroke:none;" d="M42 13L42 14L46 14L42 13M54 13L54 14L58 14L54 13z"/>
<path style="fill:#e89186; stroke:none;" d="M57 15L60 13L57 15M84 13L85 14L84 13M37 14L37 16L39 16L37 14z"/>
<path style="fill:#f7d8d9; stroke:none;" d="M38 14L38 15L41 15L38 14z"/>
<path style="fill:#d53438; stroke:none;" d="M36 17L64 18L64 19L41 19L41 21L56 21L56 22C49.5274 22 41.7938 20.7547 38 27L32 23L35 18C22.267 20.534 16.8953 33.8379 14 45C21.8443 44.9939 23.842 43.5783 26 36C31.6451 45.8126 47.8536 42 58 42L58 43L29 43L29 44L61 46L61 47C52.9004 47 37.5408 43.8094 33 52L59 52L59 53L34 53L34 56L57 56L57 57C52.3685 57 36.6694 54.6731 36 60C27.1456 56.7602 25.819 56.6642 17 60C20.0063 54.2634 20.7496 49.7029 14 47C14.009 60.5469 19.7973 78.0585 35 81L33 76L37 73L39 73C42.5505 78.4766 55.0416 76 61 76L61 77L41 78L41 80L54 81L54 82L36 82C48.3568 90.8039 71.6535 83.6762 77 70C92.9267 66.9702 84.4395 36.3246 79 28L77 29L67 21L69 19C59.7712 13.754 45.5885 11.1435 36 17z"/>
<path style="fill:#f7d8d9; stroke:none;" d="M59 14L59 15L62 15L59 14z"/>
<path style="fill:#e89186; stroke:none;" d="M62 14L61 16L63 16L62 14M85 14L86 15L85 14M34.6667 15.3333L35.3333 15.6667L34.6667 15.3333z"/>
<path style="fill:#f7d8d9; stroke:none;" d="M36 15L37 16L36 15M63 15L64 16L63 15z"/>
<path style="fill:#e89186; stroke:none;" d="M64 15L64 17L66 15L64 15M86 15L87 16L86 15M12 16L13 17L12 16M31 19L32 19L35 18L31 19z"/>
<path style="fill:#f7d8d9; stroke:none;" d="M33 16L33 17L36 17L33 16M65 16L65 17L68 18L65 16z"/>
<path style="fill:#e89186; stroke:none;" d="M67 16L68 17L67 16M82 16L79 22L85 19L82 16M87 16L88 17L87 16M11 17L12 18L11 17z"/>
<path style="fill:#d53438; stroke:none;" d="M17.3333 17.6667L17.6667 18.3333L17.3333 17.6667z"/>
<path style="fill:#f7d8d9; stroke:none;" d="M32 17L33 18L32 17z"/>
<path style="fill:#f9e259; stroke:none;" d="M35 17L36 20L33 21L33 22L38 26L43 23L43 22L40 21L41 17L35 17z"/>
<path style="fill:#e89186; stroke:none;" d="M36 17L37 18L36 17M39 17L40 18L39 17M41 17C44.8975 21.4603 58.285 19 64 19L64 18L41 17M66 17L67 18L66 17M68 17L67 21L77 29L80 29C78.7858 24.2176 75.2432 19.9639 70 21L71 18L68 17z"/>
<path style="fill:#d53438; stroke:none;" d="M77 17L78 18L77 17z"/>
<path style="fill:#e89186; stroke:none;" d="M88 17L89 18L88 17M10 18L11 19L10 18M29 18L30 19L29 18z"/>
<path style="fill:#f7d8d9; stroke:none;" d="M30 18L31 19L30 18z"/>
<path style="fill:#e89186; stroke:none;" d="M37.6667 18.3333L38.3333 18.6667L37.6667 18.3333z"/>
<path style="fill:#f7d8d9; stroke:none;" d="M69 18L70 19L69 18z"/>
<path style="fill:#e89186; stroke:none;" d="M89 18L90 19L89 18M9 19L10 20L9 19z"/>
<path style="fill:#f7d8d9; stroke:none;" d="M17 19L18 20L17 19z"/>
<path style="fill:#d53438; stroke:none;" d="M19.3333 19.6667L19.6667 20.3333L19.3333 19.6667z"/>
<path style="fill:#f7d8d9; stroke:none;" d="M18 31L19 31L30 20C24.7325 19.8886 20.228 26.7051 18 31z"/>
<path style="fill:#e89186; stroke:none;" d="M35 19L36 20L35 19M40.3333 19.6667L40.6667 20.3333L40.3333 19.6667M64 19L64 20L67 20L64 19z"/>
<path style="fill:#f7d8d9; stroke:none;" d="M70.6667 19.3333L71.3333 19.6667L70.6667 19.3333z"/>
<path style="fill:#e89186; stroke:none;" d="M26 20L27 21L26 20M28 20L29 21L28 20M34 20L35 21L34 20z"/>
<path style="fill:#d53438; stroke:none;" d="M70 20L71 21L70 20z"/>
<path style="fill:#f7d8d9; stroke:none;" d="M72 20L73 21L72 20z"/>
<path style="fill:#e89186; stroke:none;" d="M85 20L83 25L88 24L88 23L87 20L85 20M8 21L9 22L8 21M25 21L26 22L25 21M27 21L28 22L27 21M32 21L36 23L36 22L32 21M41 21L41 22L56 22L41 21z"/>
<path style="fill:#f7d8d9; stroke:none;" d="M73 21L79 27L73 21z"/>
<path style="fill:#e89186; stroke:none;" d="M91 21L92 22L91 21M7 22L8 23L7 22M12 22L14 25L11 24L12 28C6.48088 28.1452 8.47593 30.6988 6 34L12 36L13 28L15 29L13 27L13 26L17 24L12 22M24 22L25 23L24 22M56 22L56 23C65.4782 23.4132 71.4185 27.2051 75 36C76.2665 25.5974 64.1194 22.1685 56 22M23 23L24 24L23 23M36.3333 23.6667L36.6667 24.3333L36.3333 23.6667M39 23L40 24L39 23M6 24L7 25L6 24z"/>
<path style="fill:#f7d8d9; stroke:none;" d="M15 24L16 25L15 24z"/>
<path style="fill:#e89186; stroke:none;" d="M22 24L23 25L22 24M93 24L94 25L93 24z"/>
<path style="fill:#f7d8d9; stroke:none;" d="M10.6667 25.3333L11.3333 25.6667L10.6667 25.3333z"/>
<path style="fill:#e89186; stroke:none;" d="M21 25L22 26L21 25M38 25L39 26L38 25M46 25L45 30L46 30L49 27L49 26L46 25M52 25C52.9036 29.2169 57.356 28 61 28L61 27L52 25M5 26L6 27L5 26M20 26L21 27L20 26M37 26L38 27L37 26z"/>
<path style="fill:#f9e259; stroke:none;" d="M47 26L44 30L44 31L49 34L53 31L52 26L47 26z"/>
<path style="fill:#e89186; stroke:none;" d="M50 26L51 27L50 26M94 26L95 27L94 26M21 27L22 28L21 27z"/>
<path style="fill:#f7d8d9; stroke:none;" d="M79 27L80 28L79 27z"/>
<path style="fill:#e89186; stroke:none;" d="M91 34L89 36L90 45L96 43L93 44L96 40L91 40L91 39L95 39L95 36L95 35L93 31L88 33C88.0884 30.4357 88.3378 28.8733 91 30C91.8606 24.7855 80.8677 31.5174 91 34M4 28L5 29L4 28M20 28L21 29L20 28M61 28L61 29L65 30L65 29L61 28z"/>
<path style="fill:#f7d8d9; stroke:none;" d="M80 28L82 31L80 28z"/>
<path style="fill:#e89186; stroke:none;" d="M95 28L96 29L95 28z"/>
<path style="fill:#d53438; stroke:none;" d="M8 29L12 32L8 29z"/>
<path style="fill:#e89186; stroke:none;" d="M18 29L19 30L18 29M52 29L53 30L52 29M78 29C78.9597 36.5937 79.3942 42.6629 73 48C76.5529 56.4486 79.7777 60.4243 78 70L79 70C80.8267 62.3273 80.3711 55.2834 74 50L74 49C79.777 44.178 82.0183 35.708 78 29M81 29L82 30L81 29M3 30L4 31L3 30M19 30L20 31L19 30M51 31L51 32L57 31L51 31M65 30L66 31L65 30M80 30L81 31L80 30M96 30L97 31L96 30M17 31L15 36L16 36L17 36L18 34L17 32L19 32L17 31M47 31L48 32L47 31M57 31L57 32L60 32L57 31M66.3333 31.6667L66.6667 32.3333L66.3333 31.6667M81 31L81 32L82 34L83 34L84 34L81 31M2.33333 32.6667L2.66667 33.3333L2.33333 32.6667z"/>
<path style="fill:#f7d8d9; stroke:none;" d="M17 32L18 33L17 32z"/>
<path style="fill:#e89186; stroke:none;" d="M50.3333 32.6667L50.6667 33.3333L50.3333 32.6667M60 32L63 35L60 32z"/>
<path style="fill:#f7d8d9; stroke:none;" d="M82 32L83 33L82 32z"/>
<path style="fill:#d53438; stroke:none;" d="M8.66667 33.3333L9.33333 33.6667L8.66667 33.3333z"/>
<path style="fill:#e89186; stroke:none;" d="M48 33L49 34L48 33M67 33L67 40L68 40L67 33M97 33L98 34L97 33z"/>
<path style="fill:#f7d8d9; stroke:none;" d="M16 34L17 35L16 34z"/>
<path style="fill:#e89186; stroke:none;" d="M49 34L50 35L49 34z"/>
<path style="fill:#f7d8d9; stroke:none;" d="M83 34L84 35L83 34z"/>
<path style="fill:#e89186; stroke:none;" d="M1.33333 35.6667L1.66667 36.3333L1.33333 35.6667M5 35L4 39L11 39L11 38L5 35M63 35L63 38L64 38L63 35M83 35L83 37L85 35L83 35z"/>
<path style="fill:#f7d8d9; stroke:none;" d="M15.3333 36.6667L15.6667 37.3333L15.3333 36.6667z"/>
<path style="fill:#e89186; stroke:none;" d="M26 36L25 39L26 39L26 36z"/>
<path style="fill:#f7d8d9; stroke:none;" d="M84.3333 36.6667L84.6667 37.3333L84.3333 36.6667z"/>
<path style="fill:#e89186; stroke:none;" d="M98.3333 36.6667L98.6667 37.3333L98.3333 36.6667M14 37L14 39L16 39L14 37z"/>
<path style="fill:#f9e259; stroke:none;" d="M26 37L24 45L14 45L14 46L21 50L18 59C25.6019 56.6053 27.7211 56.1356 35 60L32 50L39 45L29 45L26 37z"/>
<path style="fill:#e89186; stroke:none;" d="M74 37C72.8266 42.8149 68.99 46.1137 64 49L64 50C69.0975 52.6461 72.8411 56.2564 74 62L75 62C74.3855 56.039 71.7681 51.9786 66 50L66 49C70.5395 46.877 75.8765 42.4886 74 37M85 37L84 39L86 39L85 37z"/>
<path style="fill:#d53438; stroke:none;" d="M90 37L90 38L93 38L90 37z"/>
<path style="fill:#e89186; stroke:none;" d="M27.3333 38.6667L27.6667 39.3333L27.3333 38.6667M62.3333 38.6667L62.6667 39.3333L62.3333 38.6667M0.333333 39.6667L0.666667 40.3333L0.333333 39.6667z"/>
<path style="fill:#f7d8d9; stroke:none;" d="M14.3333 39.6667L14.6667 40.3333L14.3333 39.6667M85.3333 39.6667L85.6667 40.3333L85.3333 39.6667z"/>
<path style="fill:#e89186; stroke:none;" d="M4 43L7 44L10 41L4 43M13 40L14 44L15 44L13 40M61 40L62 41L61 40M86 40L85 44L86 44L86 40z"/>
<path style="fill:#f7d8d9; stroke:none;" d="M94 40L95 41L94 40z"/>
<path style="fill:#e89186; stroke:none;" d="M99 40L99 43L100 43L99 40z"/>
<path style="fill:#f7d8d9; stroke:none;" d="M4 41L5 42L4 41M7 41L8 42L7 41z"/>
<path style="fill:#e89186; stroke:none;" d="M24 41L25 42L24 41M28 41L29 42L28 41M58 41L58 42L61 42L58 41M66 41L61 45L61 46C63.919 45.1613 66.0761 44.2397 66 41z"/>
<path style="fill:#d53438; stroke:none;" d="M92 41L93 42L92 41z"/>
<path style="fill:#f7d8d9; stroke:none;" d="M13 42L13 47L14 47L13 42z"/>
<path style="fill:#e89186; stroke:none;" d="M29 42L29 43L58 43L29 42z"/>
<path style="fill:#f7d8d9; stroke:none;" d="M7 43L8 44L7 43M86 43L86 48L87 48L86 43z"/>
<path style="fill:#e89186; stroke:none;" d="M8 44L9 45L8 44M23 44L24 45L23 44M29 44L30 45L29 44z"/>
<path style="fill:#f7d8d9; stroke:none;" d="M91 44L92 45L91 44z"/>
<path style="fill:#e89186; stroke:none;" d="M3 45L3 46L9 47L3 45M39 45C42.8043 49.3536 55.4388 47 61 47L61 46L39 45M12 46L12 54L13 54L12 46M14 46L15 47L14 46M87 46L87 53L88 53L87 46M90 47L91 50L92 50L92 47L93 47L94 49L95 47L96 49C97.4777 45.0801 92.3003 46.2573 90 47M16 47L17 48L16 47M36 47L37 48L36 47M3 48L6 52L6 53C2.23454 55.5107 4.85046 58.0004 7 61L4 60L5 63L7 63L8 60L10 62L11 62L7 53L9 48L8 48L7 51L5 51L3 48M17 48L18 49L17 48M35 48L36 49L35 48M33 49L34 50L33 49M20 50L20 53L21 53L20 50M32.3333 50.6667L32.6667 51.3333L32.3333 50.6667z"/>
<path style="fill:#f7d8d9; stroke:none;" d="M86 51L86 57L87 57L86 51z"/>
<path style="fill:#e89186; stroke:none;" d="M90 51L96 54L97 54C96.3493 50.9791 95.0857 50.9143 93 53L90 51z"/>
<path style="fill:#f7d8d9; stroke:none;" d="M13 52L13 57L14 57L13 52z"/>
<path style="fill:#e89186; stroke:none;" d="M33 55L34 55C39.7562 50.6391 51.9489 53 59 53C54.9047 50.6405 34.0658 50.0262 33 55M59 53L59 54C68.6997 57.3276 68.6997 67.6724 59 71C69.4873 74.4155 70.9363 54.8471 59 53z"/>
<path style="fill:#d53438; stroke:none;" d="M4 55L4 56L9 56L4 55z"/>
<path style="fill:#e89186; stroke:none;" d="M19 54L20 55L19 54M25 55L26 56L25 55M27 55L28 56L27 55M85 55L86 59L87 59L85 55M90 58L91 58L93 56L95 59L96 59L96 55C92.8059 55.0135 90.7292 54.5971 90 58M14 56L13 59L14 56M23 56L24 57L23 56M28 56L29 57L28 56M34 56L34 57L57 57L34 56M99 56L99 60L100 60L99 56M18 57L19 58L18 57M22 57L23 58L22 57M30 57L31 58L30 57M57 57L57 58C62.5056 59.9861 63.1365 63.9712 58 67C65.6544 68.0557 63.8638 58.0854 57 57M0 58L0 61L1 61L0 58z"/>
<path style="fill:#d53438; stroke:none;" d="M7 58L8 59L7 58z"/>
<path style="fill:#f7d8d9; stroke:none;" d="M14 58L14 61L15 61L14 58z"/>
<path style="fill:#e89186; stroke:none;" d="M20 58L21 59L20 58M32 58L33 59L32 58z"/>
<path style="fill:#f7d8d9; stroke:none;" d="M85.3333 58.6667L85.6667 59.3333L85.3333 58.6667z"/>
<path style="fill:#e89186; stroke:none;" d="M17 59L17 60L20 60L17 59M33 59L34 60L33 59M35 59L36 60L35 59M15 60L14 62L16 62L15 60M84 60L84 62L86 62L86 60L84 60z"/>
<path style="fill:#f7d8d9; stroke:none;" d="M99 60C96.27 78.2136 79.4796 93.9542 62 98L62 99C77.6678 98.9568 106.866 78.7536 99 60M0 61C0.161329 80.2321 18.794 98.9449 38 99L38 98C16.6439 94.3228 10.0062 76.9014 0 61z"/>
<path style="fill:#e89186; stroke:none;" d="M89 61L89 65L94 63L93 65L94 65L95 65L95 63L89 61M1.33333 62.6667L1.66667 63.3333L1.33333 62.6667z"/>
<path style="fill:#f7d8d9; stroke:none;" d="M15 62L16 63L15 62M84 62L85 63L84 62z"/>
<path style="fill:#e89186; stroke:none;" d="M98.3333 62.6667L98.6667 63.3333L98.3333 62.6667M6 65L7 68L8 68L10 64L8 72C12.5409 70.5277 12.6031 67.3299 12 63L6 65M15 63L15 65L17 63L15 63M83 63L85 65L85 63L83 63z"/>
<path style="fill:#f7d8d9; stroke:none;" d="M16 64L18 69L19 69L16 64z"/>
<path style="fill:#e89186; stroke:none;" d="M48 64L43 69L48 64M74 64C72.2603 70.1938 67.2004 73.8769 61 75L61 76C66.8959 75.3961 76.534 71.4102 74 64z"/>
<path style="fill:#f7d8d9; stroke:none;" d="M83 64L71 80C75.8358 76.9115 83.9197 70.3451 83 64z"/>
<path style="fill:#e89186; stroke:none;" d="M17 65L18 66L17 65z"/>
<path style="fill:#f9e259; stroke:none;" d="M48 65L44 68L44 69L45 73L52 73L52 68L48 65z"/>
<path style="fill:#e89186; stroke:none;" d="M82 65L83 66L82 65M97.3333 65.6667L97.6667 66.3333L97.3333 65.6667M2 66L3 67L2 66M16 66L17 67L16 66M49 66L50 67L49 66M83 66L84 67L83 66M87 66L87 67L93 70L93 67L87 66M18 67L19 68L18 67M50 67L50 68L57 69L50 67M81 67L82 68L81 67z"/>
<path style="fill:#010101; stroke:none;" d="M0 68L0 99L30 99L30 98C14.7775 92.0001 8.59194 80.7728 0 68z"/>
<path style="fill:#e89186; stroke:none;" d="M3.33333 68.6667L3.66667 69.3333L3.33333 68.6667M17 68L18 69L17 68M82 68L83 69L82 68z"/>
<path style="fill:#f7d8d9; stroke:none;" d="M92 68L93 69L92 68z"/>
<path style="fill:#e89186; stroke:none;" d="M96 68L97 69L96 68M18 69L18 70L22 74L18 69M45 69L46 70L45 69M51 69L51 72L52 72L51 69M81 69L82 70L81 69M81 79L77 79L77 80L80 79L79 82L88 78L88 77L85 74L89 75L89 74L86 70L91 72C85.6126 67.1813 81.7739 73.7007 81 79z"/>
<path style="fill:#010101; stroke:none;" d="M99 69C95.3592 81.6141 82.585 94.3676 70 98L70 99L100 99L99 69z"/>
<path style="fill:#f7d8d9; stroke:none;" d="M12 70L13 71L12 70z"/>
<path style="fill:#e89186; stroke:none;" d="M13.6667 70.3333L14.3333 70.6667L13.6667 70.3333z"/>
<path style="fill:#f7d8d9; stroke:none;" d="M19 70L20 71L19 70z"/>
<path style="fill:#e89186; stroke:none;" d="M77 70L74 75C76.583 73.69 78.0915 72.849 77 70M79 70L80 71L79 70M95 70L96 71L95 70M4 71L5 72L4 71z"/>
<path style="fill:#f7d8d9; stroke:none;" d="M20 71L21 72L20 71z"/>
<path style="fill:#e89186; stroke:none;" d="M45 71L46 72L45 71M80 71L81 72L80 71z"/>
<path style="fill:#f7d8d9; stroke:none;" d="M21 72L22 73L21 72z"/>
<path style="fill:#e89186; stroke:none;" d="M47 72L48 73L47 72M49 72L50 73L49 72M51 73L51 74L58 73L51 73M79 72L80 73L79 72M94 72L95 73L94 72M5 73L6 74L5 73M14 73L12 76L15 78L15 74L18 76L18 77L16 81L16 80L20 86L26 83L27 84L25 89L33 91L33 93L38 94L39 89L38 89L38 92L36 88L35 88L34 88L35 91L28 86C26.7568 82.4617 24.5691 82.1969 21 82L21 78L18 79C18.3506 75.4182 17.4439 74.0875 14 73z"/>
<path style="fill:#f7d8d9; stroke:none;" d="M22 73L29 80L22 73z"/>
<path style="fill:#e89186; stroke:none;" d="M37.6667 73.3333L38.3333 73.6667L37.6667 73.3333M45 73L46 74L45 73M78 73L79 74L78 73z"/>
<path style="fill:#d53438; stroke:none;" d="M84 73L85 74L84 73z"/>
<path style="fill:#e89186; stroke:none;" d="M6 74L7 75L6 74M23 74L24 75L23 74z"/>
<path style="fill:#f9e259; stroke:none;" d="M37 74L34 76L35 82L42 82L43 77L43 76L39 74L37 74z"/>
<path style="fill:#e89186; stroke:none;" d="M77 74L78 75L77 74M93 74L94 75L93 74M24 75L25 76L24 75M36 75L37 76L36 75M39 75L40 76L39 75M73 75L56 80L56 81L74 76L73 75z"/>
<path style="fill:#d53438; stroke:none;" d="M82 75L86 78L82 75z"/>
<path style="fill:#e89186; stroke:none;" d="M7 76L8 77L7 76M33 76L34 77L33 76M43 76L43 77L61 77L43 76M92 76L93 77L92 76M25 77L26 78L25 77M34 77L35 78L34 77M41 77L42 78L41 77M74 77L75 78L74 77M91 77L92 78L91 77M26 78L27 79L26 78M28 78L29 79L28 78M35.3333 78.6667L35.6667 79.3333L35.3333 78.6667M71 78L72 79L71 78M73 78L74 79L73 78M9 79L10 80L9 79M27 79L28 80L27 79M29 79L32 81L32 80L29 79M70 79L68 80L68 81L70 79M72 79L73 80L72 79M90 79L91 80L90 79M10 80L11 81L10 80z"/>
<path style="fill:#d53438; stroke:none;" d="M16.6667 80.3333L17.3333 80.6667L16.6667 80.3333z"/>
<path style="fill:#f7d8d9; stroke:none;" d="M18 80L19 81L18 80z"/>
<path style="fill:#d53438; stroke:none;" d="M20 80L21 81L20 80z"/>
<path style="fill:#f7d8d9; stroke:none;" d="M30 80L31 81L30 80z"/>
<path style="fill:#e89186; stroke:none;" d="M37.6667 80.3333L38.3333 80.6667L37.6667 80.3333M41 80L42 81L41 80z"/>
<path style="fill:#f7d8d9; stroke:none;" d="M69 80L70 81L69 80M81 80L82 81L81 80z"/>
<path style="fill:#e89186; stroke:none;" d="M89 80L90 81L89 80z"/>
<path style="fill:#f7d8d9; stroke:none;" d="M21 81L22 82L21 81M31 81L31 82L37 84L37 83L31 81z"/>
<path style="fill:#e89186; stroke:none;" d="M33.6667 81.3333L34.3333 81.6667L33.6667 81.3333M36 81L37 82L36 81M40 81L41 82L40 81M42 81L42 82L54 82L42 81M66 81L68 83L66 81z"/>
<path style="fill:#f7d8d9; stroke:none;" d="M67.6667 81.3333L68.3333 81.6667L67.6667 81.3333z"/>
<path style="fill:#e89186; stroke:none;" d="M76 81L77 84L73 84L77 88L76 85L80 86L76 81M82.3333 81.6667L82.6667 82.3333L82.3333 81.6667M88 81L89 82L88 81M32 82L33 83L32 82M35 82L36 83L35 82M64 82L66 84L64 82z"/>
<path style="fill:#f7d8d9; stroke:none;" d="M65.6667 82.3333L66.3333 82.6667L65.6667 82.3333z"/>
<path style="fill:#d53438; stroke:none;" d="M21 83L22 84L21 83z"/>
<path style="fill:#e89186; stroke:none;" d="M34 83L35 84L34 83M37 83L36 85L38 85L37 83M62 83L62 85L64 85L62 83z"/>
<path style="fill:#f7d8d9; stroke:none;" d="M63.6667 83.3333L64.3333 83.6667L63.6667 83.3333M73 83L74 84L73 83z"/>
<path style="fill:#e89186; stroke:none;" d="M81 83L82 84L81 83M13 84L14 85L13 84z"/>
<path style="fill:#f7d8d9; stroke:none;" d="M20 84L21 85L20 84M38.6667 84.3333L39.3333 84.6667L38.6667 84.3333z"/>
<path style="fill:#e89186; stroke:none;" d="M39 86L42 84L39 86M58 84L61 86L58 84z"/>
<path style="fill:#f7d8d9; stroke:none;" d="M60.6667 84.3333L61.3333 84.6667L60.6667 84.3333M78 84L79 85L78 84z"/>
<path style="fill:#e89186; stroke:none;" d="M14 85L15 86L14 85z"/>
<path style="fill:#f7d8d9; stroke:none;" d="M41 85L41 86L45 86L41 85z"/>
<path style="fill:#e89186; stroke:none;" d="M43 86L43 87L56 87C52.1834 84.1086 47.4646 84.9371 43 86z"/>
<path style="fill:#f7d8d9; stroke:none;" d="M55 85L55 86L59 86L55 85z"/>
<path style="fill:#e89186; stroke:none;" d="M70 85L71 91C73.4133 88.8088 72.4696 86.7404 70 85z"/>
<path style="fill:#d53438; stroke:none;" d="M27.3333 86.6667L27.6667 87.3333L27.3333 86.6667z"/>
<path style="fill:#f7d8d9; stroke:none;" d="M47 86L47 87L53 87L47 86z"/>
<path style="fill:#d53438; stroke:none;" d="M29 87L29 91L32 87L29 87z"/>
<path style="fill:#e89186; stroke:none;" d="M66 87L62 88L61 92L57 89L58 95L60 93L63 95L62 89L63 89L66 93L66 87M82 87L83 88L82 87M18 88L19 89L18 88M74.3333 88.6667L74.6667 89.3333L74.3333 88.6667M81 88L82 89L81 88M19 89L20 90L19 89M40 89L40 90L43 91L43 93L39 95C43.9205 95.0799 44.7008 90.5661 40 89z"/>
<path style="fill:#f7d8d9; stroke:none;" d="M66 89L67 90L66 89M73 89L74 90L73 89z"/>
<path style="fill:#e89186; stroke:none;" d="M80 89L81 90L80 89z"/>
<path style="fill:#f7d8d9; stroke:none;" d="M34 90L35 91L34 90z"/>
<path style="fill:#e89186; stroke:none;" d="M45 90L45 95L45 96L48 91L45 90M57 96L56 90C49.693 91.0527 51.4657 95.5687 57 96z"/>
<path style="fill:#f7d8d9; stroke:none;" d="M57 90L58 91L57 90M64 90L65 91L64 90z"/>
<path style="fill:#d53438; stroke:none;" d="M65 90L66 91L65 90z"/>
<path style="fill:#e89186; stroke:none;" d="M78 90L79 91L78 90M22 91L23 92L22 91z"/>
<path style="fill:#f7d8d9; stroke:none;" d="M37 91L38 92L37 91z"/>
<path style="fill:#d53438; stroke:none;" d="M53 91L55 95L55 91L53 91z"/>
<path style="fill:#e89186; stroke:none;" d="M77 91L78 92L77 91z"/>
<path style="fill:#f7d8d9; stroke:none;" d="M66 92L67 93L66 92z"/>
<path style="fill:#e89186; stroke:none;" d="M75 92L76 93L75 92M25 93L26 94L25 93z"/>
<path style="fill:#f7d8d9; stroke:none;" d="M61 93L62 94L61 93z"/>
<path style="fill:#e89186; stroke:none;" d="M74 93L75 94L74 93M27 94L28 95L27 94M72 94L73 95L72 94M29 95L30 96L29 95M69.6667 95.3333L70.3333 95.6667L69.6667 95.3333M32 96L33 97L32 96M67 96L68 97L67 96M34.6667 97.3333L35.3333 97.6667L34.6667 97.3333M64 97L65 98L64 97M38.6667 98.3333L39.3333 98.6667L38.6667 98.3333M60.6667 98.3333L61.3333 98.6667L60.6667 98.3333z"/>
</svg>
